<?xml version="1.0" encoding="UTF-8"?><svg id="Layer_2" xmlns="http://www.w3.org/2000/svg" viewBox="0 0 1006 1004.02"><defs><style>.cls-1{fill:#f40c0c;}</style></defs><g id="Capa_1"><circle class="cls-1" cx="417.69" cy="427.53" r="11"/><path class="cls-1" d="m705.95,527.04c-6.07,0-11-4.93-11-11s4.93-11,11-11,11,4.94,11,11-4.93,11-11,11Z"/><path class="cls-1" d="m11.04,232.45c-6.09,0-11.04-4.95-11.04-11.04V11.04C0,4.95,4.95,0,11.04,0h210.37c6.09,0,11.04,4.95,11.04,11.04s-4.95,11.04-11.04,11.04H22.08v199.33c0,6.09-4.95,11.04-11.04,11.04Z"/><path class="cls-1" d="m104.57,253.46c-6.09,0-11.04-4.95-11.04-11.04V100.93c0-6.09,4.95-11.04,11.04-11.04h141.49c6.09,0,11.04,4.95,11.04,11.04v141.49c0,6.09-4.95,11.04-11.04,11.04H104.57Zm11.04-22.08h119.41v-119.41h-119.41v119.41Z"/><path class="cls-1" d="m104.57,914.13c-6.09,0-11.04-4.95-11.04-11.04v-141.49c0-6.09,4.95-11.04,11.04-11.04h141.49c6.09,0,11.04,4.95,11.04,11.04v141.49c0,6.09-4.95,11.04-11.04,11.04H104.57Zm11.04-22.08h119.41v-119.41h-119.41v119.41Z"/><path class="cls-1" d="m321.32,707.41c-6.09,0-11.04-4.95-11.04-11.04v-96.31c0-6.09,4.95-11.04,11.04-11.04h96.31c6.09,0,11.04,4.95,11.04,11.04v96.31c0,6.09-4.95,11.04-11.04,11.04h-96.31Zm11.04-22.08h74.23v-74.23h-74.23v74.23Z"/><path class="cls-1" d="m406.69,269.11c-6.09,0-11.04-4.95-11.04-11.04v-96.31c0-6.09,4.95-11.04,11.04-11.04h96.31c6.09,0,11.04,4.95,11.04,11.04v96.31c0,6.09-4.95,11.04-11.04,11.04h-96.31Zm11.04-22.08h74.23v-74.23h-74.23v74.23Z"/><path class="cls-1" d="m759.94,914.13c-6.09,0-11.04-4.95-11.04-11.04v-141.49c0-6.09,4.95-11.04,11.04-11.04h141.49c6.09,0,11.04,4.95,11.04,11.04v141.49c0,6.09-4.95,11.04-11.04,11.04h-141.49Zm11.04-22.08h119.41v-119.41h-119.41v119.41Z"/><path class="cls-1" d="m759.94,253.45c-6.09,0-11.04-4.95-11.04-11.04V100.93c0-6.09,4.95-11.04,11.04-11.04h141.49c6.09,0,11.04,4.95,11.04,11.04v141.49c0,6.09-4.95,11.04-11.04,11.04h-141.49Zm11.04-22.08h119.41v-119.41h-119.41v119.41Z"/><path class="cls-1" d="m994.96,232.45c-6.09,0-11.04-4.95-11.04-11.04V22.08h-199.33c-6.09,0-11.04-4.95-11.04-11.04S778.5,0,784.59,0h210.37c6.09,0,11.04,4.95,11.04,11.04v210.37c0,6.09-4.95,11.04-11.04,11.04Z"/><path class="cls-1" d="m784.59,1004.02c-6.09,0-11.04-4.95-11.04-11.04s4.95-11.04,11.04-11.04h199.33v-199.33c0-6.09,4.95-11.04,11.04-11.04s11.04,4.95,11.04,11.04v210.37c0,6.09-4.95,11.04-11.04,11.04h-210.37Z"/><path class="cls-1" d="m11.04,1004.02c-6.09,0-11.04-4.95-11.04-11.04v-210.37c0-6.09,4.95-11.04,11.04-11.04s11.04,4.95,11.04,11.04v199.33h199.33c6.09,0,11.04,4.95,11.04,11.04s-4.95,11.04-11.04,11.04H11.04Z"/><path class="cls-1" d="m321.32,914.13c-6.09,0-11.04-4.95-11.04-11.04s4.95-11.04,11.04-11.04h259.48v-219.71c0-6.09,4.95-11.04,11.04-11.04h309.59c6.09,0,11.04,4.95,11.04,11.04s-4.95,11.04-11.04,11.04h-298.55v219.71c0,6.09-4.95,11.04-11.04,11.04h-270.52Z"/><path class="cls-1" d="m591.84,344.05c-6.09,0-11.04-4.95-11.04-11.04V100.93c0-6.09,4.95-11.04,11.04-11.04s11.04,4.95,11.04,11.04v221.05h298.55c6.09,0,11.04,4.95,11.04,11.04s-4.95,11.04-11.04,11.04h-309.59Z"/><path class="cls-1" d="m591.84,608.24c-6.09,0-11.04-4.95-11.04-11.04v-81.16c0-6.09,4.95-11.04,11.04-11.04s11.04,4.95,11.04,11.04v70.12h287.51v-158.63c0-6.09,4.95-11.04,11.04-11.04s11.04,4.95,11.04,11.04v169.67c0,6.09-4.95,11.04-11.04,11.04h-309.59Z"/><path class="cls-1" d="m507.01,438.57c-6.09,0-11.04-4.95-11.04-11.04s4.95-11.04,11.04-11.04h198.39c6.09,0,11.04,4.95,11.04,11.04s-4.95,11.04-11.04,11.04h-198.39Z"/><path class="cls-1" d="m678,914.13c-6.09,0-11.04-4.95-11.04-11.04v-141.49c0-6.09,4.95-11.04,11.04-11.04s11.04,4.95,11.04,11.04v141.49c0,6.09-4.95,11.04-11.04,11.04Z"/><path class="cls-1" d="m104.57,652.66c-6.09,0-11.04-4.95-11.04-11.04s4.95-11.04,11.04-11.04h130.45v-114.54c0-6.09,4.95-11.04,11.04-11.04h256.94c6.09,0,11.04,4.95,11.04,11.04s-4.95,11.04-11.04,11.04h-245.9v114.54c0,6.09-4.95,11.04-11.04,11.04H104.57Z"/><path class="cls-1" d="m321.32,833.97c-6.09,0-11.04-4.95-11.04-11.04,0-6.09,4.95-11.04,11.04-11.04h182v-115.52c0-6.09,4.95-11.04,11.04-11.04s11.04,4.95,11.04,11.04v126.56c0,6.09-4.95,11.04-11.04,11.04h-193.04Z"/><path class="cls-1" d="m104.57,344.05c-6.09,0-11.04-4.95-11.04-11.04s4.95-11.04,11.04-11.04h141.49c6.09,0,11.04,4.95,11.04,11.04s-4.95,11.04-11.04,11.04H104.57Z"/><path class="cls-1" d="m175.32,589.87c-6.09,0-11.04-4.95-11.04-11.04v-151.3c0-6.09,4.95-11.04,11.04-11.04h152.55c6.09,0,11.04,4.95,11.04,11.04s-4.95,11.04-11.04,11.04h-141.51v140.26c0,6.09-4.95,11.04-11.04,11.04Z"/><path class="cls-1" d="m321.32,344.05c-6.09,0-11.04-4.95-11.04-11.04V100.93c0-6.09,4.95-11.04,11.04-11.04s11.04,4.95,11.04,11.04v221.05h170.64c6.09,0,11.04,4.95,11.04,11.04s-4.95,11.04-11.04,11.04h-181.68Z"/><path class="cls-1" d="m675.89,253.45c-6.09,0-11.04-4.95-11.04-11.04V100.93c0-6.09,4.95-11.04,11.04-11.04s11.04,4.95,11.04,11.04v141.49c0,6.09-4.95,11.04-11.04,11.04Z"/><path class="cls-1" d="m820.28,527.08c-6.09,0-11.04-4.95-11.04-11.04v-88.51c0-6.09,4.95-11.04,11.04-11.04s11.04,4.95,11.04,11.04v88.51c0,6.09-4.95,11.04-11.04,11.04Z"/><path class="cls-1" d="m104.57,589.87c-6.09,0-11.04-4.95-11.04-11.04v-151.3c0-6.09,4.95-11.04,11.04-11.04s11.04,4.95,11.04,11.04v151.3c0,6.09-4.95,11.04-11.04,11.04Z"/><circle class="cls-1" cx="514.36" cy="607.55" r="11"/></g></svg>
