<?xml version="1.0" encoding="UTF-8"?><svg id="Layer_2" xmlns="http://www.w3.org/2000/svg" viewBox="0 0 135.78 49.6"><defs><style>.cls-1,.cls-2{fill:#231f20;}.cls-2{font-family:Decoracha-Regular, Decoracha;font-size:36px;stroke:#231f20;stroke-miterlimit:10;stroke-width:1.5px;}</style></defs><g id="Layer_1-2"><text class="cls-2" transform="translate(25.67 28.9)"><tspan x="0" y="0">Scan Me</tspan></text><path class="cls-1" d="m8.57,5.3c-1.03,1.13-2.06,2.37-3.07,3.72-.95,1.35-1.76,2.83-2.6,4.43-.76,1.59-1.34,3.32-1.92,5.17-.44,1.83-.8,3.8-.99,5.85.91-2.07,2.04-4.01,3.19-5.76.56-.87,1.24-1.72,1.92-2.52.68-.8,1.37-1.56,2.08-2.27l.83,2.24,1.09,2.13c.33.72.79,1.38,1.24,2.03.47.64.84,1.34,1.4,1.91l1.55,1.77,1.72,1.58c.55.55,1.22.95,1.83,1.42l.93.68.99.59c5.23,3.15,11.26,4.63,17.1,4.32-5.81-.53-11.35-2.85-15.66-6.39l-.81-.65-.74-.73c-.48-.5-1.02-.93-1.43-1.49l-1.29-1.58-1.1-1.71c-.4-.54-.62-1.19-.94-1.78-.3-.6-.6-1.19-.79-1.84l-.65-1.88-.41-1.95c.97.17,1.93.29,2.87.37.94.08,1.85.12,2.82.08,1.92-.07,3.7-.3,5.45-.73-4.88.25-10.25-2.46-14.62-7.02Z"/></g></svg>