<?xml version="1.0" encoding="UTF-8"?><svg id="Layer_2" xmlns="http://www.w3.org/2000/svg" viewBox="0 0 89.09 39.93"><defs><style>.cls-1{fill-rule:evenodd;}</style></defs><g id="Calque_81_-_copie"><path class="cls-1" d="m87.89,3.78c-1.16-1.95-2.86-3.13-5.12-3.51-1.93-.32-3.86-.29-5.8-.26-4.54.07-9.08.16-13.62.19-4.59.04-9.18.03-13.77.01-2.04,0-2.3-.08-4.34-.11-1.73-.03-3.47-.09-5.2-.05-1.17.02-2.35.12-3.5.31-3.8.61-6.34,3.61-6.34,7.46,0,8.11-1.74,16.22-1.71,24.33,0,.55.05,1.12.19,1.66.92,3.61,3.46,5.7,7.19,6.02,2.14.18,4.28.05,6.42.03,5.46-.05,10.92-.02,16.37-.02,5.76,0,9.75,0,15.52,0,1.89,0,3.77.02,5.66-.04,1.77-.06,3.44-.52,4.8-1.73,1.76-1.57,2.73-3.52,2.73-5.91-.02-8.11,1.72-16.22,1.73-24.33,0-1.49-.45-2.81-1.19-4.05Zm-53.66,2.31c.47-.83,1.16-1.43,2.05-1.76.47-.18.98-.27,1.48-.34,2.23-.33,4.48-.24,6.72-.18,2.65.08,3.79.13,6.44.16,2.96.03,6.14,0,9.14,0h0c5-.01,10.86,0,16.42-.02,1.22,0,2.31-.07,3.54-.07.71,0,1.36,0,2.07.08,1.53.17,2.81,1.37,3.2,2.86.12.45-.03.82-.33,1.12-.44.42-.91.83-1.4,1.19-4.54,3.38-9.11,6.74-13.65,10.11-2.78,2.07-5.55,4.16-8.32,6.25-.2.15-.41.31-.62.45-1.26.81-2.58.93-3.91.2-.71-.39-1.4-.84-2.05-1.33-5.28-3.92-8.78-7.86-14.06-11.78-1.76-1.31-3.54-2.6-5.3-3.9-.37-.27-.74-.55-1.07-.86-.74-.69-.84-1.3-.34-2.18Zm-1.99,22.34c-.03-5.44,1.72-10.89,1.71-16.33,0-.55.02-1.09.04-1.69.24.04.4.03.51.1,3.73,2.46,9.73,8.41,10.79,9.61-1.15,1.07-11.63,8.78-12.76,9.39-.46-.26-.28-.71-.28-1.07Zm51.16,5.28c-.58,1.14-1.44,1.99-2.75,2.21-.75.12-1.52.19-2.28.19-13.15,0-24.52-.02-37.67-.03-1.17,0-2.34.04-3.52.05-.51,0-1.02,0-1.53-.06-1.65-.17-2.63-1.19-3.26-2.65-.25-.59-.14-1.11.31-1.54.33-.32.67-.63,1.06-.87,2.52-1.56,4.78-3.48,7.14-5.25,1.63-1.23,3.28-2.42,4.93-3.61.41-.29.86-.53,1.36-.83.49.33.97.61,1.41.95,1.59,1.2,3.16,2.42,4.74,3.62.69.52,1.36,1.08,2.09,1.54,2.25,1.43,4.52,1.38,6.75-.04.68-.44,1.32-.95,1.97-1.45,1.95-1.48,3.89-2.97,5.84-4.45.12-.09.27-.13.47-.23.31.21.66.41.98.65,4.23,3.11,6.68,6.22,10.91,9.33.2.15.41.3.6.47.76.66.89,1.14.45,2.01Zm.2-5.07c0,.29-.04.58-.07.99-.28-.09-.48-.11-.62-.22-3.97-2.93-6.17-5.86-10.14-8.8-.2-.15-.37-.33-.55-.5,1.11-1.16,11.18-8.8,12.85-9.75.07.36.17.69.19,1.02.05,1.12.09,2.24.1,3.36.02,4.63-1.76,9.27-1.76,13.9Z"/><path class="cls-1" d="m26.5,2.15H2.5c-.83,0-1.5.67-1.5,1.5s.67,1.5,1.5,1.5h24c.83,0,1.5-.67,1.5-1.5s-.67-1.5-1.5-1.5Z"/><path class="cls-1" d="m25.5,34.15H1.5c-.83,0-1.5.67-1.5,1.5s.67,1.5,1.5,1.5h24c.83,0,1.5-.67,1.5-1.5s-.67-1.5-1.5-1.5Z"/><path class="cls-1" d="m26.5,10.15H9.5c-.83,0-1.5.67-1.5,1.5s.67,1.5,1.5,1.5h17c.83,0,1.5-.67,1.5-1.5s-.67-1.5-1.5-1.5Z"/><path class="cls-1" d="m24.5,29.15c.83,0,1.5-.67,1.5-1.5s-.67-1.5-1.5-1.5H7.5c-.83,0-1.5.67-1.5,1.5s.67,1.5,1.5,1.5h17Z"/><path class="cls-1" d="m25.5,18.15H1.5c-.83,0-1.5.67-1.5,1.5s.67,1.5,1.5,1.5h24c.83,0,1.5-.67,1.5-1.5s-.67-1.5-1.5-1.5Z"/></g></svg>