<?xml version="1.0" encoding="UTF-8"?><svg id="Layer_2" xmlns="http://www.w3.org/2000/svg" viewBox="0 0 171.6 49.6"><defs><style>.cls-1{fill:#010101;}.cls-2,.cls-3{fill:#231f20;}.cls-3{font-family:Decoracha-Regular, Decoracha;font-size:36px;stroke:#231f20;stroke-miterlimit:10;stroke-width:1.5px;}</style></defs><g id="Layer_1-2"><text class="cls-3" transform="translate(25.67 28.9)"><tspan x="0" y="0">Scan Me</tspan></text><path class="cls-2" d="m8.57,5.3c-1.03,1.13-2.06,2.37-3.07,3.72-.95,1.35-1.76,2.83-2.6,4.43-.76,1.59-1.34,3.32-1.92,5.17-.44,1.83-.8,3.8-.99,5.85.91-2.07,2.04-4.01,3.19-5.76.56-.87,1.24-1.72,1.92-2.52.68-.8,1.37-1.56,2.08-2.27l.83,2.24,1.09,2.13c.33.72.79,1.38,1.24,2.03.47.64.84,1.34,1.4,1.91l1.55,1.77,1.72,1.58c.55.55,1.22.95,1.83,1.42l.93.68.99.59c5.23,3.15,11.26,4.63,17.1,4.32-5.81-.53-11.35-2.85-15.66-6.39l-.81-.65-.74-.73c-.48-.5-1.02-.93-1.43-1.49l-1.29-1.58-1.1-1.71c-.4-.54-.62-1.19-.94-1.78-.3-.6-.6-1.19-.79-1.84l-.65-1.88-.41-1.95c.97.17,1.93.29,2.87.37.94.08,1.85.12,2.82.08,1.92-.07,3.7-.3,5.45-.73-4.88.25-10.25-2.46-14.62-7.02Z"/><path class="cls-1" d="m150.68,30.29v-5.07h1.15c1.68,3.26,1.94,3.76,2.02,4h.01c-.05-.63-.06-1.45-.06-2.28v-1.72h.82v5.07h-1.1c-1.8-3.57-1.98-3.95-2.06-4.14h0c.04.65.04,1.51.04,2.42v1.72h-.82Z"/><path class="cls-1" d="m155.82,25.22h3.15v.75h-2.28v1.42h2.14v.74h-2.14v2.17h-.88v-5.07Z"/><path class="cls-1" d="m163.64,28.73c-.14.84-.7,1.63-1.96,1.63-1.56,0-2.13-1.15-2.13-2.62s.7-2.59,2.17-2.59c1.3,0,1.83.82,1.9,1.63h-.88c-.11-.48-.33-.9-1.05-.9-.9,0-1.22.9-1.22,1.86s.29,1.9,1.23,1.9c.7,0,.94-.46,1.06-.91h.88Z"/><path class="cls-1" d="m161.37,21.53c-1.14-1.12-2.65-1.73-4.25-1.72h0c-1.6.01-3.1.64-4.22,1.78l-.1.1.73.72.1-.1c.93-.94,2.17-1.47,3.5-1.48h.04c1.31,0,2.55.51,3.48,1.43l.1.1.72-.73-.1-.1Z"/><path class="cls-1" d="m163.3,19.58c-1.64-1.62-3.82-2.51-6.13-2.51h-.06c-2.33.02-4.52.94-6.15,2.6l-.1.1.73.72.1-.1c1.44-1.46,3.37-2.28,5.43-2.29.02,0,.04,0,.06,0,2.04,0,3.96.78,5.4,2.21l.1.1.72-.73-.1-.1Z"/><path class="cls-1" d="m165.29,17.58c-1.88-1.85-4.35-3.01-6.96-3.27l-.25-.02c-.9-.09-1.81-.05-2.71.11l-.23.04c-2.34.42-4.47,1.55-6.16,3.26l-.14.14.83.81.14-.15c1.68-1.7,3.81-2.74,6.17-3.02h.11c.43-.06.87-.08,1.3-.07h.11c2.66.08,5.08,1.11,6.97,2.98l.15.15.81-.83-.14-.14Z"/><path class="cls-1" d="m157.13,36.77c-7.98,0-14.47-6.49-14.47-14.47s6.49-14.47,14.47-14.47,14.47,6.49,14.47,14.47-6.49,14.47-14.47,14.47Zm0-27.94c-7.43,0-13.47,6.04-13.47,13.47s6.04,13.47,13.47,13.47,13.47-6.04,13.47-13.47-6.04-13.47-13.47-13.47Z"/></g></svg>