<?xml version="1.0" encoding="utf-8"?>
<!-- Generator: Adobe Illustrator 27.6.1, SVG Export Plug-In . SVG Version: 6.00 Build 0)  -->
<!DOCTYPE svg PUBLIC "-//W3C//DTD SVG 1.1//EN" "http://www.w3.org/Graphics/SVG/1.1/DTD/svg11.dtd" [
	<!ENTITY ns_extend "http://ns.adobe.com/Extensibility/1.0/">
	<!ENTITY ns_ai "http://ns.adobe.com/AdobeIllustrator/10.0/">
	<!ENTITY ns_graphs "http://ns.adobe.com/Graphs/1.0/">
	<!ENTITY ns_vars "http://ns.adobe.com/Variables/1.0/">
	<!ENTITY ns_imrep "http://ns.adobe.com/ImageReplacement/1.0/">
	<!ENTITY ns_sfw "http://ns.adobe.com/SaveForWeb/1.0/">
	<!ENTITY ns_custom "http://ns.adobe.com/GenericCustomNamespace/1.0/">
	<!ENTITY ns_adobe_xpath "http://ns.adobe.com/XPath/1.0/">
]>
<svg version="1.1" id="Layer_1" xmlns:x="&ns_extend;" xmlns:i="&ns_ai;" xmlns:graph="&ns_graphs;"
	 xmlns="http://www.w3.org/2000/svg" xmlns:xlink="http://www.w3.org/1999/xlink" x="0px" y="0px" viewBox="0 0 72.5 55.9"
	 style="enable-background:new 0 0 72.5 55.9;" xml:space="preserve">
<style type="text/css">
	.st0{fill-rule:evenodd;clip-rule:evenodd;fill:#E517DB;}
</style>
<metadata>
	<sfw  xmlns="&ns_sfw;">
		<slices></slices>
		<sliceSourceBounds  bottomLeftOrigin="true" height="55.9" width="72.5" x="0" y="0"></sliceSourceBounds>
	</sfw>
</metadata>
<path class="st0" d="M36.3,41.8c3.9,0,7.1,3.2,7.1,7.1s-3.2,7.1-7.1,7.1s-7.1-3.2-7.1-7.1S32.3,41.8,36.3,41.8L36.3,41.8z"/>
<path class="st0" d="M36.3,7C48.1,7,58.9,11.9,66.7,19.6c4.5,3.2,7.9-2.9,4.4-5.5C62,5.4,49.8,0.1,36.3,0
	C22.7,0.1,10.5,5.4,1.4,14.1c-3.5,2.6-0.1,8.7,4.4,5.5C13.6,11.9,24.4,7,36.3,7L36.3,7L36.3,7z"/>
<path class="st0" d="M36.3,21c7.8,0.1,14.9,3.1,20.2,8.2c4.1,3.8,8-1,5.3-4.6C55.2,18.1,46.2,14,36.3,14
	c-9.9,0.1-18.9,4.1-25.5,10.6c-2.7,3.5,1.3,8.4,5.3,4.6C21.4,24.1,28.5,21,36.3,21L36.3,21L36.3,21z"/>
<path class="st0" d="M36.3,34.9c4.3,0,7.5,1.6,10.7,4.5c4.6,3.2,8-2.7,4.4-5.5c-4-3.7-9.2-5.9-15-6c-5.8,0.1-11.1,2.3-15,6
	c-3.6,2.8-0.2,8.7,4.4,5.5C28.8,36.5,32,35,36.3,34.9L36.3,34.9L36.3,34.9z"/>
</svg>
