<?xml version="1.0" encoding="UTF-8"?><svg id="Layer_1" xmlns="http://www.w3.org/2000/svg" viewBox="0 0 75 75"><defs><style>.cls-1,.cls-2{fill:#010101;}.cls-2{fill-rule:evenodd;}</style></defs>
<path class="cls-1" d="m16.3,58.19l-3.34-14.56h2.9l2.09,10.02,2.54-10.02h3.35l2.48,10.18,2.13-10.18h2.84l-3.34,14.56h-3.02l-2.8-10.89-2.76,10.89h-3.06Zm16.29-11.98v-2.58h2.69v2.58h-2.69Zm0,11.98v-10.55h2.69v10.55h-2.69Zm4.64-3.88v-2.79h5.26v2.79h-5.26Zm7.34,3.88v-14.56h9.57v2.46h-6.76v3.45h5.86v2.46h-5.86v6.18h-2.81Zm11.89-11.98v-2.58h2.69v2.58h-2.69Zm0,11.98v-10.55h2.69v10.55h-2.69Z"/><path class="cls-2" d="m37.5,0c20.71,0,37.5,16.79,37.5,37.5s-16.79,37.5-37.5,37.5S0,58.21,0,37.5,16.79,0,37.5,0h0Zm0,5.5c17.67,0,32,14.33,32,32s-14.33,32-32,32S5.5,55.17,5.5,37.5,19.83,5.5,37.5,5.5h0Z"/><path class="cls-2" d="m65.25,37.63c-.07-15.27-12.46-27.62-27.75-27.62s-27.68,12.35-27.75,27.62h4.25c.07-12.92,10.56-23.37,23.49-23.37s23.43,10.45,23.49,23.37h4.25Z"/><path class="cls-2" d="m56.74,37.63c-.07-10.57-8.66-19.12-19.24-19.12s-19.17,8.55-19.24,19.12h4.25c.07-8.22,6.75-14.87,14.99-14.87s14.92,6.64,14.99,14.87h4.25Z"/><path class="cls-2" d="m48.24,37.63c-.07-5.87-4.85-10.61-10.74-10.61s-10.67,4.74-10.74,10.61h4.25c.07-3.52,2.95-6.36,6.49-6.36s6.42,2.84,6.49,6.36h4.25Z"/></svg>
