<?xml version="1.0" encoding="UTF-8"?><svg id="Layer_2" xmlns="http://www.w3.org/2000/svg" viewBox="0 0 257.99 284.41"><g id="Layer_1-2"><path d="m257.98,284.41c-6.86-1.12-13.67-2.19-20.39-3.67-3.37-.65-6.71-1.46-10.04-2.21-3.32-.84-6.64-1.63-9.91-2.58-13.14-3.58-25.93-8.02-38.29-13.15-24.7-10.34-47.58-23.75-68.03-39.61-10.21-7.95-19.86-16.46-28.79-25.56-4.5-4.51-8.78-9.21-12.93-13.98-4.11-4.81-8.08-9.72-11.88-14.72-3.79-5.01-7.4-10.13-10.8-15.37-3.4-5.23-6.66-10.53-9.71-15.94-6.1-10.8-11.35-21.99-15.84-33.39l10.13-5.05c12.43,19.89,27.38,37.86,44.53,52.99,8.51,7.63,17.64,14.45,27.03,20.65,4.75,3.04,9.53,5.98,14.45,8.65,1.21.69,2.45,1.34,3.69,1.99,1.24.64,2.45,1.32,3.71,1.93,2.5,1.23,5,2.45,7.53,3.59,20.18,9.24,41.43,15.24,62.68,17.9,5.33.63,10.64,1.1,15.94,1.34,5.31.2,10.59.31,15.85.08,2.62-.06,5.26-.27,7.86-.42,2.62-.24,5.21-.41,7.8-.72l3.88-.48,3.86-.59c2.56-.34,5.12-.89,7.66-1.36v79.69Z"/><polygon points="68.19 114.32 0 0 1.88 133.1 68.19 114.32"/></g></svg>